<?xml version="1.0" encoding="iso-8859-1"?>
<!DOCTYPE svg PUBLIC "-//W3C//DTD SVG 1.1//EN" "http://www.w3.org/Graphics/SVG/1.1/DTD/svg11.dtd">
<svg 
 version="1.1" xmlns="http://www.w3.org/2000/svg" xmlns:xlink="http://www.w3.org/1999/xlink" x="0px" y="0px" width="512px"
	 height="512px" viewBox="0 0 512 512" style="enable-background:new 0 0 512 512;" xml:space="preserve"
><g fill="#757575" id="afcae5a789ccd549f9c6e2a2f81068a1"><g fill="#757575"></g><path style="display: inline; evenodd; clip-rule: evenodd;" d="M411.703,178.71l14.797-14.796
		c29.716,15.686,47.694,29.567,47.694,29.567S449.159,186.407,411.703,178.71z M346.074,189.38l42.97-42.97l94.977-94.977
		l-27.48-27.479L348.216,132.279c-28.79-8.147-60.873-13.338-94.474-12.005c-135.232,5.364-220.273,92.295-220.273,92.295
		s23.096-17.708,70.75-32.662c-29.738,19.794-54.527,43.166-73.494,65.554C18.677,259.685,0.5,262.887,0.5,262.887
		s1.202,14.813,8.629,18.422c7.748,3.759,21.737-3.676,21.737-3.676s72.545-86.639,162.619-115.466
		c3.227-0.316,6.513-0.607,9.839-0.873c-39.876,18.805-67.485,59.351-67.485,106.367c0,22.062,6.092,42.693,16.669,60.328
		l-44.258,44.26c-23.227-9.656-38.344-17.401-38.344-17.401s13.272,9.204,34.995,20.75l-84.967,84.969l27.475,27.479l94.698-94.698
		l5.984-5.984l29.705-29.704l165.584-165.584L346.074,189.38z M212.514,377.898l151.104-151.104
		c4.725,12.729,7.336,26.49,7.336,40.867c0,64.922-52.634,117.553-117.558,117.553C239.021,385.214,225.248,382.622,212.514,377.898
		z M511.5,268.094c0,0-1.692,5.43-10.293,8.965c-14.218,5.839-38.292,10.987-38.292,10.987s-70.902,114.293-165.954,130.419
		c-38.931,6.604-79.049,0.313-114.55-10.462l8.063-8.061c31.713,7.855,64.84,12.23,92.802,7.577
		c77.959-12.966,158.817-134.22,158.817-134.22s-26.672-30.406-64.324-60.656l31.896-31.896
		C470.472,220.103,511.5,268.094,511.5,268.094z"></path></g></svg>