<?xml version="1.0" encoding="iso-8859-1"?>
<!DOCTYPE svg PUBLIC "-//W3C//DTD SVG 1.1//EN" "http://www.w3.org/Graphics/SVG/1.1/DTD/svg11.dtd">
<svg 
 version="1.1" xmlns="http://www.w3.org/2000/svg" xmlns:xlink="http://www.w3.org/1999/xlink" x="0px" y="0px" width="512px"
	 height="512px" viewBox="0 0 512 512" enable-background="new 0 0 512 512" xml:space="preserve"
><g fill="#ffffff" id="1b1c9b208ed950244c86edd4d2015615"><g fill="#ffffff"></g><path display="inline" clip-rule="evenodd" d="M383.725,28.19C277.292,28.19,256,92.065,256,92.065
		S234.708,28.19,128.25,28.19C64.375,28.19,0.5,91.489,0.5,177.232c0,114.279,117.424,183.826,239.394,298.085
		c0,0,8.126,8.492,15.811,8.492c7.689,0,16.248-8.334,16.248-8.334C394.159,361.004,511.5,291.702,511.5,177.232
		C511.5,92.335,447.625,28.19,383.725,28.19z M362.458,278.353h-85.166v85.167h-42.583v-85.167h-85.167v-42.581h85.167v-87.296
		h42.583v87.296h85.166V278.353z"></path></g></svg>